<svg xmlns="http://www.w3.org/2000/svg" xmlns:xlink="http://www.w3.org/1999/xlink" version="1.1" width="256" height="256" viewBox="0 0 256 256" xml:space="preserve">
<g style="stroke: none; stroke-width: 0; stroke-dasharray: none; stroke-linecap: butt; stroke-linejoin: miter; stroke-miterlimit: 10; fill: none; fill-rule: nonzero; opacity: 1;" transform="translate(1.4065934065934016 1.4065934065934016) scale(2.81 2.81)">
	<path d="M 80.255 56.69 c 2.259 -0.303 5.341 -2.071 4.977 -3.693 c -0.445 -2.174 -8.391 -7.88 -8.51 -13.648 c -0.158 -12.101 -2.055 -19.528 -5.62 -25.53 C 57.07 -7.942 15.75 -3.891 6.028 25.185 c -3.781 10.72 0.635 36.704 14.817 45.314 c 2.451 1.513 -0.941 11.155 -4.666 19.501 h 35.196 c 2.348 -5.72 6.343 -11.08 9.291 -10.188 c 11.591 1.433 14.453 0.576 16.859 -2.248 c 1.378 -1.905 1.026 -4.509 0 -7.386 c -0.379 -1.235 3.277 -1.008 2.89 -2.408 c -0.451 -1.632 -5.35 -2.676 -7.394 -4.74 c 2.198 -0.12 8.584 0.179 8.036 -1.522 C 80.498 60.077 78.365 56.891 80.255 56.69 z M 69.452 37.182 h -13.44 v 5.864 h 7.535 c 0.828 0 1.5 0.671 1.5 1.5 s -0.672 1.5 -1.5 1.5 h -7.535 v 2.276 c 0 0.828 -0.672 1.5 -1.5 1.5 h -2.276 v 13.44 c 0 0.828 -0.672 1.5 -1.5 1.5 s -1.5 -0.672 -1.5 -1.5 v -13.44 h -5.864 v 18.165 c 0 0.828 -0.671 1.5 -1.5 1.5 s -1.5 -0.672 -1.5 -1.5 V 49.823 h -5.865 v 8.716 c 0 0.828 -0.671 1.5 -1.5 1.5 s -1.5 -0.672 -1.5 -1.5 v -8.716 H 29.23 c -0.829 0 -1.5 -0.672 -1.5 -1.5 v -2.276 h -6.354 c -0.829 0 -1.5 -0.672 -1.5 -1.5 s 0.671 -1.5 1.5 -1.5 h 6.354 v -5.864 H 15.471 c -0.829 0 -1.5 -0.671 -1.5 -1.5 s 0.671 -1.5 1.5 -1.5 H 27.73 v -5.865 h -7.535 c -0.829 0 -1.5 -0.671 -1.5 -1.5 s 0.671 -1.5 1.5 -1.5 h 7.535 v -2.276 c 0 -0.829 0.671 -1.5 1.5 -1.5 h 2.276 v -6.354 c 0 -0.829 0.671 -1.5 1.5 -1.5 s 1.5 0.671 1.5 1.5 v 6.354 h 5.865 V 9.282 c 0 -0.829 0.671 -1.5 1.5 -1.5 s 1.5 0.671 1.5 1.5 v 12.259 h 5.864 v -8.716 c 0 -0.829 0.672 -1.5 1.5 -1.5 s 1.5 0.671 1.5 1.5 v 8.716 h 2.276 c 0.828 0 1.5 0.671 1.5 1.5 v 2.276 h 6.354 c 0.828 0 1.5 0.671 1.5 1.5 s -0.672 1.5 -1.5 1.5 h -6.354 v 5.865 h 13.44 c 0.828 0 1.5 0.671 1.5 1.5 S 70.28 37.182 69.452 37.182 z" style="stroke: none; stroke-width: 1; stroke-dasharray: none; stroke-linecap: butt; stroke-linejoin: miter; stroke-miterlimit: 10; fill: rgb(0,0,0); fill-rule: nonzero; opacity: 1;" transform=" matrix(1 0 0 1 0 0) " stroke-linecap="round"/>
	<path d="M 53.012 24.541 H 30.73 v 22.282 h 22.282 V 24.541 z M 37.371 35.282 c 0 0.829 -0.671 1.5 -1.5 1.5 s -1.5 -0.671 -1.5 -1.5 v -5.6 c 0 -0.829 0.671 -1.5 1.5 -1.5 h 5.6 c 0.829 0 1.5 0.671 1.5 1.5 s -0.671 1.5 -1.5 1.5 h -4.1 V 35.282 z M 49.371 41.682 c 0 0.829 -0.672 1.5 -1.5 1.5 h -5.6 c -0.829 0 -1.5 -0.671 -1.5 -1.5 s 0.671 -1.5 1.5 -1.5 h 4.1 v -4.1 c 0 -0.829 0.672 -1.5 1.5 -1.5 s 1.5 0.671 1.5 1.5 V 41.682 z" style="stroke: none; stroke-width: 1; stroke-dasharray: none; stroke-linecap: butt; stroke-linejoin: miter; stroke-miterlimit: 10; fill: rgb(0,0,0); fill-rule: nonzero; opacity: 1;" transform=" matrix(1 0 0 1 0 0) " stroke-linecap="round"/>
</g>
</svg>