<svg xmlns="http://www.w3.org/2000/svg" xmlns:xlink="http://www.w3.org/1999/xlink" version="1.1" width="256" height="256" viewBox="0 0 256 256" xml:space="preserve">
<g style="stroke: none; stroke-width: 0; stroke-dasharray: none; stroke-linecap: butt; stroke-linejoin: miter; stroke-miterlimit: 10; fill: none; fill-rule: nonzero; opacity: 1;" transform="translate(1.4065934065934016 1.4065934065934016) scale(2.81 2.81)">
	<path d="M 57.776 4.946 c 0 -1.199 0.82 -2.263 1.905 -2.475 c 0.744 -0.144 1.467 0.037 2.042 0.509 c 0.57 0.47 0.897 1.157 0.897 1.887 v 9.018 c 0 0.65 0.527 1.177 1.177 1.177 c 0.651 0 1.177 -0.527 1.177 -1.177 V 4.867 V 3.73 c 0 -1.323 1.076 -2.399 2.398 -2.399 c 1.323 0 2.399 1.076 2.399 2.399 v 10.156 c 0 0.65 0.527 1.177 1.177 1.177 s 1.177 -0.527 1.177 -1.177 V 3.73 V 2.399 c 0 -0.665 0.266 -1.283 0.747 -1.74 c 0.482 -0.456 1.077 -0.693 1.782 -0.655 c 1.25 0.066 2.267 1.231 2.267 2.598 v 2.944 v 8.34 c 0 0.65 0.527 1.177 1.177 1.177 c 0.651 0 1.177 -0.527 1.177 -1.177 v -8.34 c 0 -0.665 0.266 -1.282 0.747 -1.74 c 0.482 -0.457 1.101 -0.689 1.782 -0.655 c 1.251 0.066 2.268 1.231 2.268 2.598 v 18.22 c 0 0.65 0.527 1.177 1.177 1.177 c 0.651 0 1.177 -0.527 1.177 -1.177 v -6.948 c 0 -0.974 0.804 -1.902 1.687 -1.949 c 0.47 -0.025 0.963 0.146 1.323 0.486 c 0.359 0.34 0.556 0.8 0.556 1.295 v 6.532 c 0 2.728 -0.947 5.395 -2.667 7.509 l -0.105 0.129 c -2.571 3.159 -3.986 7.142 -3.986 11.213 v 19.109 h -6.394 c 0.251 -0.482 0.406 -1.011 0.435 -1.562 c 0.06 -1.149 -0.341 -2.239 -1.13 -3.07 c -0.778 -0.82 -1.873 -1.29 -3.003 -1.29 h -6.53 c -1.115 0 -2.22 0.142 -3.295 0.399 V 44.19 c 0 -3.368 -0.915 -6.599 -2.646 -9.346 c -1.528 -2.424 -2.9 -4.896 -2.9 -8.465 V 4.946 z" style="stroke: none; stroke-width: 1; stroke-dasharray: none; stroke-linecap: butt; stroke-linejoin: miter; stroke-miterlimit: 10; fill: rgb(0,0,0); fill-rule: nonzero; opacity: 1;" transform=" matrix(1 0 0 1 0 0) " stroke-linecap="round"/>
	<path d="M 2.47 30.318 c -0.145 -0.742 0.036 -1.466 0.509 -2.041 c 0.47 -0.57 1.157 -0.897 1.887 -0.897 h 9.018 c 0.65 0 1.177 -0.527 1.177 -1.177 s -0.527 -1.177 -1.177 -1.177 H 4.867 H 3.73 c -1.323 0 -2.399 -1.076 -2.399 -2.399 c 0 -1.322 1.076 -2.398 2.399 -2.398 h 10.156 c 0.65 0 1.177 -0.527 1.177 -1.177 s -0.527 -1.177 -1.177 -1.177 H 3.73 H 2.398 c -0.665 0 -1.283 -0.266 -1.74 -0.748 c -0.457 -0.482 -0.69 -1.115 -0.655 -1.782 c 0.066 -1.25 1.231 -2.268 2.598 -2.268 h 2.944 h 8.34 c 0.65 0 1.177 -0.527 1.177 -1.177 s -0.527 -1.177 -1.177 -1.177 h -8.34 c -0.665 0 -1.283 -0.266 -1.74 -0.748 C 3.348 9.492 3.115 8.859 3.15 8.192 c 0.066 -1.25 1.231 -2.268 2.598 -2.268 h 18.22 c 0.65 0 1.177 -0.527 1.177 -1.177 S 24.618 3.57 23.968 3.57 H 17.02 c -0.974 0 -1.902 -0.804 -1.949 -1.686 c -0.026 -0.497 0.147 -0.967 0.487 -1.325 c 0.34 -0.359 0.8 -0.556 1.294 -0.556 h 6.532 c 2.727 0 5.395 0.949 7.511 2.67 l 0.127 0.103 c 3.159 2.57 7.141 3.985 11.213 3.985 h 13.187 v 19.62 c 0 0.103 0.012 0.197 0.014 0.299 H 44.19 c -3.369 0 -6.601 0.915 -9.346 2.646 c -2.424 1.528 -4.895 2.9 -8.465 2.9 H 4.945 C 3.746 32.224 2.682 31.405 2.47 30.318 z" style="stroke: none; stroke-width: 1; stroke-dasharray: none; stroke-linecap: butt; stroke-linejoin: miter; stroke-miterlimit: 10; fill: rgb(0,0,0); fill-rule: nonzero; opacity: 1;" transform=" matrix(1 0 0 1 0 0) " stroke-linecap="round"/>
	<path d="M 24.034 86.85 c -0.665 0.033 -1.3 -0.198 -1.782 -0.654 c -0.482 -0.458 -0.748 -1.076 -0.748 -1.741 v -8.34 c 0 -0.651 -0.527 -1.177 -1.177 -1.177 s -1.177 0.527 -1.177 1.177 v 8.34 V 87.4 c 0 1.366 -1.018 2.532 -2.268 2.597 c -0.658 0.032 -1.3 -0.198 -1.782 -0.654 c -0.482 -0.458 -0.748 -1.076 -0.748 -1.741 v -1.331 V 76.115 c 0 -0.651 -0.527 -1.177 -1.177 -1.177 s -1.177 0.527 -1.177 1.177 v 10.156 c 0 1.322 -1.076 2.398 -2.399 2.398 S 7.2 87.593 7.2 86.271 v -1.137 v -9.018 c 0 -0.651 -0.527 -1.177 -1.177 -1.177 s -1.177 0.527 -1.177 1.177 v 9.018 c 0 0.73 -0.327 1.418 -0.897 1.888 c -0.575 0.471 -1.298 0.651 -2.041 0.508 c -1.086 -0.212 -1.906 -1.275 -1.906 -2.575 V 63.621 c 0 -3.569 1.372 -6.04 2.9 -8.464 c 1.73 -2.746 2.645 -5.977 2.645 -9.346 V 34.579 h 19.919 v 13.186 c 0 4.072 1.415 8.055 3.987 11.216 l 0.101 0.124 c 1.722 2.117 2.67 4.784 2.67 7.512 v 6.53 c 0 0.494 -0.198 0.954 -0.556 1.295 c -0.358 0.34 -0.832 0.52 -1.325 0.486 c -0.882 -0.046 -1.686 -0.974 -1.686 -1.948 v -6.948 c 0 -0.651 -0.527 -1.177 -1.177 -1.177 s -1.177 0.527 -1.177 1.177 v 18.22 C 26.302 85.62 25.284 86.785 24.034 86.85 z" style="stroke: none; stroke-width: 1; stroke-dasharray: none; stroke-linecap: butt; stroke-linejoin: miter; stroke-miterlimit: 10; fill: rgb(0,0,0); fill-rule: nonzero; opacity: 1;" transform=" matrix(1 0 0 1 0 0) " stroke-linecap="round"/>
	<path d="M 86.85 65.968 c 0.036 0.666 -0.197 1.298 -0.654 1.78 c -0.458 0.483 -1.076 0.748 -1.741 0.748 h -8.34 c -0.651 0 -1.177 0.527 -1.177 1.177 s 0.527 1.177 1.177 1.177 h 8.34 h 2.944 c 1.366 0 2.532 1.018 2.597 2.268 c 0.036 0.667 -0.198 1.299 -0.654 1.781 c -0.458 0.483 -1.076 0.748 -1.741 0.748 H 86.27 H 76.115 c -0.651 0 -1.177 0.527 -1.177 1.177 s 0.527 1.177 1.177 1.177 H 86.27 c 1.322 0 2.398 1.076 2.398 2.398 c 0 1.322 -1.076 2.398 -2.398 2.398 h -1.137 h -9.018 c -0.651 0 -1.177 0.527 -1.177 1.177 c 0 0.651 0.527 1.177 1.177 1.177 h 9.018 c 0.73 0 1.418 0.328 1.887 0.898 c 0.474 0.575 0.654 1.299 0.509 2.041 c -0.212 1.086 -1.276 1.905 -2.575 1.905 H 63.62 c -3.57 0 -6.041 -1.372 -8.464 -2.898 c -2.746 -1.731 -5.977 -2.647 -9.346 -2.647 H 28.638 c 0.003 -0.068 0.019 -0.132 0.019 -0.2 v -7.407 c 0.482 0.251 1.011 0.406 1.563 0.435 c 1.144 0.056 2.237 -0.341 3.069 -1.13 c 0.82 -0.778 1.29 -1.873 1.29 -3.003 v -6.53 c 0 -0.7 -0.063 -1.395 -0.165 -2.082 h 13.351 c 4.074 0 8.055 -1.415 11.211 -3.984 l 0.129 -0.105 c 2.117 -1.721 4.784 -2.67 7.512 -2.67 h 6.53 c 0.494 0 0.954 0.198 1.295 0.556 c 0.34 0.358 0.513 0.829 0.486 1.326 c -0.046 0.882 -0.974 1.686 -1.948 1.686 h -6.948 c -0.651 0 -1.177 0.527 -1.177 1.177 c 0 0.651 0.527 1.177 1.177 1.177 h 18.22 C 85.619 63.699 86.784 64.717 86.85 65.968 z" style="stroke: none; stroke-width: 1; stroke-dasharray: none; stroke-linecap: butt; stroke-linejoin: miter; stroke-miterlimit: 10; fill: rgb(0,0,0); fill-rule: nonzero; opacity: 1;" transform=" matrix(1 0 0 1 0 0) " stroke-linecap="round"/>
</g>
</svg>