<svg xmlns="http://www.w3.org/2000/svg" xmlns:xlink="http://www.w3.org/1999/xlink" version="1.1" width="256" height="256" viewBox="0 0 256 256" xml:space="preserve">
<g style="stroke: none; stroke-width: 0; stroke-dasharray: none; stroke-linecap: butt; stroke-linejoin: miter; stroke-miterlimit: 10; fill: none; fill-rule: nonzero; opacity: 1;" transform="translate(1.4065934065934016 1.4065934065934016) scale(2.81 2.81)">
	<path d="M 89.937 42.224 c 0.008 -0.03 0.007 -0.061 0.014 -0.092 c 0.021 -0.096 0.037 -0.193 0.044 -0.292 C 89.999 41.79 90 41.74 90 41.689 c 0 -0.093 -0.009 -0.185 -0.022 -0.277 c -0.008 -0.052 -0.014 -0.102 -0.026 -0.153 c -0.02 -0.089 -0.051 -0.176 -0.084 -0.263 c -0.019 -0.05 -0.034 -0.101 -0.057 -0.15 c -0.007 -0.015 -0.01 -0.031 -0.017 -0.046 L 74.848 11.145 c -0.01 -0.019 -0.026 -0.033 -0.036 -0.052 c -0.077 -0.143 -0.167 -0.277 -0.274 -0.395 c -0.003 -0.004 -0.006 -0.008 -0.009 -0.012 c -0.116 -0.126 -0.25 -0.232 -0.394 -0.324 c -0.023 -0.014 -0.046 -0.026 -0.069 -0.04 c -0.131 -0.077 -0.269 -0.138 -0.416 -0.183 c -0.02 -0.006 -0.038 -0.014 -0.058 -0.02 c -0.163 -0.045 -0.333 -0.07 -0.508 -0.071 c -0.008 0 -0.015 -0.003 -0.022 -0.003 c -0.023 0 -0.045 0.009 -0.068 0.009 c -0.089 0.003 -0.177 0.003 -0.267 0.019 L 47 14.441 V 8.03 c 0 -1.105 -0.896 -2 -2 -2 s -2 0.896 -2 2 v 7.091 l -3.66 0.622 c -0.026 0.004 -0.048 0.015 -0.074 0.02 l -0.002 -0.008 l -22.662 3.848 c -0.048 0.008 -0.091 0.026 -0.137 0.038 c -0.048 0.012 -0.095 0.024 -0.142 0.039 c -0.138 0.045 -0.27 0.101 -0.392 0.173 c -0.017 0.01 -0.036 0.016 -0.052 0.027 c -0.139 0.087 -0.262 0.192 -0.374 0.308 c -0.03 0.03 -0.055 0.063 -0.083 0.096 c -0.088 0.103 -0.164 0.213 -0.23 0.332 c -0.012 0.022 -0.031 0.038 -0.042 0.061 L 0.206 50.331 c -0.008 0.015 -0.011 0.032 -0.018 0.047 c -0.022 0.048 -0.037 0.097 -0.056 0.146 C 0.099 50.612 0.068 50.7 0.048 50.79 c -0.012 0.051 -0.018 0.102 -0.026 0.153 C 0.009 51.035 0.001 51.126 0 51.218 c 0 0.052 0.001 0.104 0.005 0.156 c 0.007 0.095 0.022 0.187 0.042 0.28 c 0.007 0.034 0.006 0.068 0.015 0.102 c 0.008 0.029 0.019 0.057 0.027 0.086 c 0.003 0.009 0.006 0.018 0.009 0.028 c 2.103 7.541 9.008 12.799 16.84 12.799 c 7.831 0 14.735 -5.257 16.84 -12.797 c 0.003 -0.01 0.007 -0.021 0.01 -0.031 c 0.008 -0.028 0.019 -0.055 0.027 -0.084 c 0.009 -0.033 0.008 -0.066 0.015 -0.1 c 0.02 -0.093 0.036 -0.187 0.043 -0.283 c 0.004 -0.052 0.005 -0.103 0.005 -0.154 c 0 -0.093 -0.009 -0.184 -0.022 -0.277 c -0.008 -0.051 -0.014 -0.102 -0.026 -0.152 c -0.02 -0.09 -0.051 -0.178 -0.085 -0.266 c -0.019 -0.049 -0.034 -0.099 -0.056 -0.146 c -0.007 -0.015 -0.01 -0.032 -0.018 -0.047 L 19.944 23.094 l 20.064 -3.407 l 0 0 c 0.001 0 0.001 0 0.002 0 L 43 19.179 V 68.63 H 23.749 c -2.042 0 -3.697 1.655 -3.697 3.697 v 4.185 h 49.897 v -4.185 c 0 -2.042 -1.655 -3.697 -3.697 -3.697 H 47 V 18.499 l 22.493 -3.82 L 56.33 40.8 c -0.008 0.015 -0.01 0.031 -0.017 0.046 c -0.023 0.049 -0.038 0.099 -0.057 0.15 c -0.033 0.087 -0.063 0.174 -0.084 0.263 c -0.012 0.051 -0.018 0.102 -0.026 0.153 c -0.014 0.093 -0.022 0.185 -0.022 0.277 c 0 0.051 0.001 0.101 0.005 0.152 c 0.007 0.099 0.023 0.195 0.044 0.292 c 0.007 0.03 0.006 0.061 0.014 0.092 c 0.007 0.026 0.017 0.05 0.024 0.076 c 0.005 0.015 0.009 0.031 0.015 0.046 c 2.105 7.537 9.008 12.791 16.836 12.791 c 7.829 0 14.732 -5.254 16.837 -12.791 c 0.005 -0.015 0.01 -0.031 0.015 -0.046 C 89.92 42.275 89.93 42.25 89.937 42.224 z M 21.775 49.231 v -5.505 h -9.276 v 5.505 H 5.241 L 16.938 26.02 l 11.698 23.211 H 21.775 z M 79.004 39.7 l -5.523 -7.179 L 67.958 39.7 h -6.594 l 11.697 -23.21 L 84.759 39.7 H 79.004 z" style="stroke: none; stroke-width: 1; stroke-dasharray: none; stroke-linecap: butt; stroke-linejoin: miter; stroke-miterlimit: 10; fill: rgb(0,0,0); fill-rule: nonzero; opacity: 1;" transform=" matrix(1 0 0 1 0 0) " stroke-linecap="round"/>
</g>
</svg>