<svg xmlns="http://www.w3.org/2000/svg" xmlns:xlink="http://www.w3.org/1999/xlink" version="1.1" width="256" height="256" viewBox="0 0 256 256" xml:space="preserve">
<g style="stroke: none; stroke-width: 0; stroke-dasharray: none; stroke-linecap: butt; stroke-linejoin: miter; stroke-miterlimit: 10; fill: none; fill-rule: nonzero; opacity: 1;" transform="translate(1.4065934065934016 1.4065934065934016) scale(2.81 2.81)">
	<path d="M 16.707 16.707 L 16.707 16.707 c -2.238 2.238 -5.867 2.238 -8.105 0 l -3.08 -3.08 c -2.238 -2.238 -2.238 -5.867 0 -8.105 l 0 0 c 2.238 -2.238 5.867 -2.238 8.105 0 l 3.08 3.08 C 18.945 10.84 18.945 14.468 16.707 16.707 z" style="stroke: none; stroke-width: 1; stroke-dasharray: none; stroke-linecap: butt; stroke-linejoin: miter; stroke-miterlimit: 10; fill: rgb(0,0,0); fill-rule: nonzero; opacity: 1;" transform=" matrix(1 0 0 1 0 0) " stroke-linecap="round"/>
	<path d="M 73.293 16.707 L 73.293 16.707 c 2.238 2.238 5.867 2.238 8.105 0 l 3.08 -3.08 c 2.238 -2.238 2.238 -5.867 0 -8.105 l 0 0 c -2.238 -2.238 -5.867 -2.238 -8.105 0 l -3.08 3.08 C 71.055 10.84 71.055 14.468 73.293 16.707 z" style="stroke: none; stroke-width: 1; stroke-dasharray: none; stroke-linecap: butt; stroke-linejoin: miter; stroke-miterlimit: 10; fill: rgb(0,0,0); fill-rule: nonzero; opacity: 1;" transform=" matrix(1 0 0 1 0 0) " stroke-linecap="round"/>
	<path d="M 16.707 73.293 L 16.707 73.293 c -2.238 -2.238 -5.867 -2.238 -8.105 0 l -3.08 3.08 c -2.238 2.238 -2.238 5.867 0 8.105 l 0 0 c 2.238 2.238 5.867 2.238 8.105 0 l 3.08 -3.08 C 18.945 79.16 18.945 75.532 16.707 73.293 z" style="stroke: none; stroke-width: 1; stroke-dasharray: none; stroke-linecap: butt; stroke-linejoin: miter; stroke-miterlimit: 10; fill: rgb(0,0,0); fill-rule: nonzero; opacity: 1;" transform=" matrix(1 0 0 1 0 0) " stroke-linecap="round"/>
	<path d="M 73.293 73.293 L 73.293 73.293 c 2.238 -2.238 5.867 -2.238 8.105 0 l 3.08 3.08 c 2.238 2.238 2.238 5.867 0 8.105 l 0 0 c -2.238 2.238 -5.867 2.238 -8.105 0 l -3.08 -3.08 C 71.055 79.16 71.055 75.532 73.293 73.293 z" style="stroke: none; stroke-width: 1; stroke-dasharray: none; stroke-linecap: butt; stroke-linejoin: miter; stroke-miterlimit: 10; fill: rgb(0,0,0); fill-rule: nonzero; opacity: 1;" transform=" matrix(1 0 0 1 0 0) " stroke-linecap="round"/>
	<path d="M 33.457 0.163 c -5.222 1.345 -10.083 3.59 -14.425 6.543 c 3.189 3.418 3.127 8.79 -0.205 12.121 c -1.702 1.702 -3.938 2.553 -6.174 2.553 c -2.14 0 -4.276 -0.789 -5.947 -2.349 c -2.954 4.342 -5.198 9.203 -6.544 14.425 c -0.835 3.242 1.648 6.398 4.997 6.398 h 0 c 2.358 0 4.391 -1.61 4.983 -3.893 c 0.894 -3.447 2.302 -6.684 4.112 -9.651 l 7.672 7.672 c 1.889 1.889 4.951 1.889 6.839 0 l 5.217 -5.217 c 1.889 -1.889 1.889 -4.951 0 -6.839 l -7.672 -7.672 c 2.967 -1.81 6.204 -3.218 9.651 -4.112 c 2.283 -0.592 3.893 -2.625 3.893 -4.983 C 39.855 1.811 36.699 -0.672 33.457 0.163 z" style="stroke: none; stroke-width: 1; stroke-dasharray: none; stroke-linecap: butt; stroke-linejoin: miter; stroke-miterlimit: 10; fill: rgb(0,0,0); fill-rule: nonzero; opacity: 1;" transform=" matrix(1 0 0 1 0 0) " stroke-linecap="round"/>
	<path d="M 89.837 33.457 c -1.345 -5.222 -3.59 -10.083 -6.543 -14.425 c -1.672 1.56 -3.808 2.349 -5.948 2.349 c -2.236 0 -4.472 -0.851 -6.174 -2.554 c -3.332 -3.331 -3.394 -8.703 -0.204 -12.121 c -4.342 -2.953 -9.203 -5.198 -14.425 -6.543 c -3.242 -0.835 -6.398 1.648 -6.398 4.997 c 0 2.358 1.61 4.391 3.893 4.983 c 3.447 0.894 6.684 2.302 9.651 4.112 l -7.672 7.672 c -1.889 1.889 -1.889 4.951 0 6.839 l 5.217 5.217 c 1.889 1.889 4.951 1.889 6.839 0 l 7.672 -7.672 c 1.81 2.967 3.218 6.204 4.112 9.651 c 0.592 2.283 2.625 3.893 4.983 3.893 h 0 C 88.189 39.855 90.672 36.699 89.837 33.457 z" style="stroke: none; stroke-width: 1; stroke-dasharray: none; stroke-linecap: butt; stroke-linejoin: miter; stroke-miterlimit: 10; fill: rgb(0,0,0); fill-rule: nonzero; opacity: 1;" transform=" matrix(1 0 0 1 0 0) " stroke-linecap="round"/>
	<path d="M 35.962 79.858 c -3.144 -0.816 -6.122 -2.047 -8.872 -3.63 l 7.523 -7.523 c 1.889 -1.889 1.889 -4.951 0 -6.839 l -5.217 -5.217 c -1.889 -1.889 -4.951 -1.889 -6.839 0 l -7.819 7.819 c -2.048 -3.173 -3.623 -6.679 -4.596 -10.429 c -0.592 -2.283 -2.625 -3.893 -4.983 -3.893 h 0 c -3.348 0 -5.832 3.156 -4.997 6.398 c 1.345 5.222 3.59 10.083 6.543 14.425 c 3.419 -3.19 8.791 -3.127 12.122 0.204 c 3.332 3.332 3.394 8.703 0.204 12.122 c 4.342 2.954 9.203 5.198 14.425 6.543 c 3.242 0.835 6.398 -1.648 6.398 -4.997 C 39.855 82.482 38.245 80.45 35.962 79.858 z" style="stroke: none; stroke-width: 1; stroke-dasharray: none; stroke-linecap: butt; stroke-linejoin: miter; stroke-miterlimit: 10; fill: rgb(0,0,0); fill-rule: nonzero; opacity: 1;" transform=" matrix(1 0 0 1 0 0) " stroke-linecap="round"/>
	<path d="M 84.841 50.145 L 84.841 50.145 c -2.358 0 -4.391 1.61 -4.983 3.893 c -0.973 3.75 -2.548 7.256 -4.596 10.429 l -7.819 -7.819 c -1.889 -1.889 -4.951 -1.889 -6.839 0 l -5.217 5.217 c -1.889 1.889 -1.889 4.951 0 6.839 l 7.523 7.523 c -2.75 1.583 -5.728 2.815 -8.872 3.63 c -2.283 0.592 -3.893 2.625 -3.893 4.983 v 0 c 0 3.348 3.156 5.832 6.398 4.997 c 5.222 -1.345 10.083 -3.59 14.425 -6.543 c -3.19 -3.419 -3.128 -8.79 0.204 -12.122 s 8.703 -3.394 12.122 -0.204 c 2.953 -4.342 5.198 -9.203 6.543 -14.425 C 90.672 53.3 88.189 50.145 84.841 50.145 z" style="stroke: none; stroke-width: 1; stroke-dasharray: none; stroke-linecap: butt; stroke-linejoin: miter; stroke-miterlimit: 10; fill: rgb(0,0,0); fill-rule: nonzero; opacity: 1;" transform=" matrix(1 0 0 1 0 0) " stroke-linecap="round"/>
</g>
</svg>