<?xml version="1.0" encoding="UTF-8" standalone="no"?>
<!-- Created with Inkscape (http://www.inkscape.org/) -->

<svg
   width="500"
   height="500"
   viewBox="0 0 500.00001 500.00002"
   version="1.1"
   id="svg1"
   inkscape:version="1.4 (e7c3feb100, 2024-10-09)"
   sodipodi:docname="logowithname.svg"
   xml:space="preserve"
   inkscape:export-filename="logowithname.png"
   inkscape:export-xdpi="96"
   inkscape:export-ydpi="96"
   xmlns:inkscape="http://www.inkscape.org/namespaces/inkscape"
   xmlns:sodipodi="http://sodipodi.sourceforge.net/DTD/sodipodi-0.dtd"
   xmlns:xlink="http://www.w3.org/1999/xlink"
   xmlns="http://www.w3.org/2000/svg"
   xmlns:svg="http://www.w3.org/2000/svg"><sodipodi:namedview
     id="namedview1"
     pagecolor="#ffffff"
     bordercolor="#000000"
     borderopacity="0.25"
     inkscape:showpageshadow="2"
     inkscape:pageopacity="0.0"
     inkscape:pagecheckerboard="true"
     inkscape:deskcolor="#d1d1d1"
     inkscape:document-units="mm"
     inkscape:zoom="1.4142136"
     inkscape:cx="244.65894"
     inkscape:cy="131.1683"
     inkscape:window-width="1719"
     inkscape:window-height="1372"
     inkscape:window-x="1719"
     inkscape:window-y="0"
     inkscape:window-maximized="0"
     inkscape:current-layer="layer1" /><defs
     id="defs1"><rect
       x="7"
       y="433"
       width="485"
       height="55"
       id="rect1" /><linearGradient
       id="linearGradient2"
       inkscape:collect="always"><stop
         style="stop-color:#54c2ff;stop-opacity:1;"
         offset="0"
         id="stop3" /><stop
         style="stop-color:#00a1cf;stop-opacity:0.25;"
         offset="1"
         id="stop4" /></linearGradient><linearGradient
       id="linearGradient39"
       inkscape:collect="always"><stop
         style="stop-color:#54c2ff;stop-opacity:1;"
         offset="0"
         id="stop38" /><stop
         style="stop-color:#00a1cf;stop-opacity:0.25;"
         offset="1"
         id="stop39" /></linearGradient><linearGradient
       id="swatch14"
       inkscape:swatch="solid"><stop
         style="stop-color:#000000;stop-opacity:1;"
         offset="0"
         id="stop14" /></linearGradient><linearGradient
       id="swatch13"
       inkscape:swatch="solid"><stop
         style="stop-color:#000000;stop-opacity:1;"
         offset="0"
         id="stop13" /></linearGradient><linearGradient
       id="swatch2"
       inkscape:swatch="solid"><stop
         style="stop-color:#000000;stop-opacity:1;"
         offset="0"
         id="stop2" /></linearGradient><linearGradient
       id="swatch1"
       inkscape:swatch="solid"><stop
         style="stop-color:#000000;stop-opacity:1;"
         offset="0"
         id="stop1" /></linearGradient><linearGradient
       inkscape:collect="always"
       xlink:href="#linearGradient39"
       id="linearGradient20"
       gradientUnits="userSpaceOnUse"
       x1="402.63947"
       y1="274.54156"
       x2="-89.858253"
       y2="-1.5344009"
       gradientTransform="matrix(0,0.80609309,-1.4404274,0,395.67424,74.320566)" /><clipPath
       clipPathUnits="userSpaceOnUse"
       id="clipPath42"><rect
         style="fill:none;fill-opacity:1;stroke-width:1.19267;stroke-dasharray:none"
         id="rect42"
         width="232.27167"
         height="285.27167"
         x="91.5"
         y="54.5" /></clipPath><linearGradient
       inkscape:collect="always"
       xlink:href="#linearGradient2"
       id="linearGradient4"
       x1="69.340057"
       y1="324.84753"
       x2="331.59055"
       y2="63.280762"
       gradientUnits="userSpaceOnUse"
       gradientTransform="matrix(1.5196886,0,0,1.5196886,-104.74851,-95.359392)" /></defs><g
     inkscape:groupmode="layer"
     id="layer2"
     inkscape:label="Concept Art"
     style="display:none;opacity:0.482"><g
       transform="matrix(0.06675178,0,0,-0.06675178,-87.246273,637.11255)"
       fill="#000000"
       stroke="none"
       id="g85"><path
         d="m 3280,2825 v -715 h 145 145 l 10,26 c 6,16 9,281 8,712 l -3,687 -152,3 -153,3 z"
         id="path35" /><path
         d="m 4135,3497 c -3,-23 -5,-343 -3,-712 l 3,-670 h 345 l 345,1 79,27 c 120,42 181,74 259,136 152,121 246,288 267,473 32,277 -126,565 -377,692 -145,73 -314,97 -675,95 h -237 z m 532,-262 c 204,-13 337,-98 415,-263 28,-59 30,-69 26,-160 -3,-83 -8,-107 -35,-164 -57,-121 -165,-210 -288,-236 -27,-6 -112,-14 -187,-17 l -136,-7 -4,184 c -2,100 -1,294 0,431 l 4,247 61,-5 c 34,-2 99,-7 144,-10 z"
         id="path36" /><path
         d="m 7382,3531 -64,-6 1,-698 c 0,-384 3,-703 6,-708 5,-8 291,-14 297,-6 1,1 5,200 8,442 l 5,441 240,-254 c 132,-139 326,-341 430,-448 l 190,-195 98,1 c 69,0 99,4 102,13 8,22 14,1035 8,1235 l -6,192 -91,-1 c -50,-1 -122,-4 -161,-8 l -70,-6 -5,-425 -5,-425 -104,110 c -298,315 -417,445 -544,593 l -140,162 -66,-2 c -36,-1 -95,-4 -129,-7 z"
         id="path37" /><path
         d="m 2010,3453 c -18,-43 -87,-193 -153,-333 -66,-140 -131,-280 -144,-310 -152,-330 -269,-582 -294,-632 -17,-33 -28,-62 -25,-65 11,-11 296,-5 310,6 7,6 44,72 82,146 l 69,135 h 271 c 149,0 285,3 301,6 28,5 30,3 46,-48 10,-29 41,-98 70,-153 50,-96 53,-100 85,-99 17,0 86,1 153,2 140,2 133,-11 66,132 -21,47 -47,103 -57,125 -16,37 -200,427 -320,680 -58,122 -199,440 -207,468 -5,15 -19,17 -112,17 h -107 z m 228,-585 c 45,-95 82,-176 82,-180 0,-5 -76,-8 -170,-8 -93,0 -170,2 -170,4 0,20 160,356 170,356 3,0 43,-78 88,-172 z"
         id="path38" /><path
         d="m 6162,2385 c 4,-4 31,-12 60,-16 29,-5 54,-13 56,-19 2,-5 12,-10 22,-10 10,0 21,-6 24,-12 5,-10 7,-10 12,0 3,6 14,12 25,12 10,0 19,5 19,10 0,6 23,10 50,10 43,0 50,-3 50,-20 0,-13 7,-20 20,-20 13,0 20,7 20,19 0,10 7,22 16,25 23,9 24,8 24,-14 0,-13 7,-20 20,-20 11,0 20,6 20,14 0,21 30,27 101,21 46,-4 60,-2 49,5 -9,7 -89,10 -205,10 -104,0 -235,3 -290,6 -55,3 -97,3 -93,-1 z m 205,-31 c -3,-3 -12,-4 -19,-1 -8,3 -5,6 6,6 11,1 17,-2 13,-5 z"
         id="path39" /></g></g><g
     inkscape:label="Layer 1"
     inkscape:groupmode="layer"
     id="layer1"
     style="display:inline"
     transform="translate(51.773053)"><g
       id="g1"
       transform="matrix(0.89998913,0,0,0.89998913,19.824851,9.3962415)"
       inkscape:label="g1"><path
         style="fill:url(#linearGradient20);fill-opacity:1;stroke-width:1.13219;stroke-dasharray:none"
         d="M 60.1678,396.80353 C 84.235142,391.53758 90.265785,385.67471 108.7702,369.73515 342.98897,380.74501 386.65658,180.77367 386.28262,125.87627 434.99359,347.36706 220.80984,409.67542 60.1678,396.80353 Z"
         id="path14-2-9-9-1-6"
         sodipodi:nodetypes="cccc"
         inkscape:label="Outer2" /><path
         style="opacity:1;fill:url(#linearGradient4);stroke:none;stroke-width:1.59676;stroke-dasharray:none;stroke-opacity:1"
         d="M 313.16586,26.215695 C 176.8405,-27.23559 120.92195,32.166653 82.93302,79.404788 69.19934,96.482227 45.592047,93.111756 30.503783,101.44027 c 5.16878,7.2959 9.934786,14.28969 13.677198,20.51581 -8.658046,2.59478 -18.412836,6.65187 -28.114239,10.63782 0.637328,3.24684 -2.190706,-0.60209 5.318911,16.71658 -5.008438,3.79922 -13.2425513,7.59844 -14.4370423,11.39766 L 13.78721,181.22393 C 10.630285,194.36982 -1.0202861,205.72758 4.6690777,220.73583 13.293555,249.7802 67.799462,240.87171 97.37006,280.00368 93.39174,322.91739 73.2428,360.4409 45.700675,395.50001 77.817067,391.47844 103.86315,369.30709 117.88587,341.55108 142.06716,293.68751 123.45809,257.1349 101.74547,229.5966 88.117653,212.31235 70.827835,189.06893 78.373951,162.98767 92.5196,114.09674 109.86542,3.1373872 313.16586,26.215695 Z"
         id="path42"
         sodipodi:nodetypes="cscccccccccsssc"
         inkscape:label="Human Face" /></g><text
       xml:space="preserve"
       style="font-style:normal;font-variant:normal;font-weight:bold;font-stretch:normal;font-size:40.1818px;font-family:FreeSerif;-inkscape-font-specification:'FreeSerif, Bold';font-variant-ligatures:normal;font-variant-caps:normal;font-variant-numeric:normal;font-variant-east-asian:normal;text-align:center;letter-spacing:87.7324px;writing-mode:lr-tb;direction:ltr;text-anchor:middle;fill:#54c2ff;stroke-width:1.75466;stroke-linecap:round"
       x="352.3623"
       y="248.69295"
       id="text1"
       transform="scale(0.56144525,1.7811176)"><tspan
         sodipodi:role="line"
         id="tspan1"
         x="396.22849"
         y="248.69295"
         style="font-style:normal;font-variant:normal;font-weight:bold;font-stretch:normal;font-size:40.1818px;font-family:FreeSerif;-inkscape-font-specification:'FreeSerif, Bold';font-variant-ligatures:normal;font-variant-caps:normal;font-variant-numeric:normal;font-variant-east-asian:normal;stroke-width:1.75466">SYMPAX</tspan></text><text
       xml:space="preserve"
       style="font-style:normal;font-variant:normal;font-weight:bold;font-stretch:normal;font-size:16.3916px;font-family:FreeSerif;-inkscape-font-specification:'FreeSerif, Bold';font-variant-ligatures:normal;font-variant-caps:normal;font-variant-numeric:normal;font-variant-east-asian:normal;text-align:center;letter-spacing:60.1646px;writing-mode:lr-tb;direction:ltr;text-anchor:middle;fill:#54c2ff;stroke-width:1.20328;stroke-linecap:round"
       x="368.99567"
       y="254.14645"
       id="text2"
       transform="scale(0.53781734,1.8593673)"><tspan
         sodipodi:role="line"
         id="tspan2"
         x="399.07794"
         y="254.14645"
         style="stroke-width:1.20328;-inkscape-font-specification:'FreeSerif, Bold';font-family:FreeSerif;font-weight:bold;font-style:normal;font-stretch:normal;font-variant:normal;font-size:16.39160035px;font-variant-ligatures:normal;font-variant-caps:normal;font-variant-numeric:normal;font-variant-east-asian:normal">INITIATIVE</tspan></text></g></svg>
