<svg xmlns="http://www.w3.org/2000/svg" xmlns:xlink="http://www.w3.org/1999/xlink" version="1.1" width="256" height="256" viewBox="0 0 256 256" xml:space="preserve">
<g style="stroke: none; stroke-width: 0; stroke-dasharray: none; stroke-linecap: butt; stroke-linejoin: miter; stroke-miterlimit: 10; fill: none; fill-rule: nonzero; opacity: 1;" transform="translate(1.4065934065934016 1.4065934065934016) scale(2.81 2.81)">
	<path d="M 76.82 13.18 C 68.32 4.681 57.02 0 45 0 S 21.68 4.681 13.18 13.18 C 4.681 21.68 0 32.98 0 45 s 4.681 23.32 13.18 31.82 C 21.68 85.319 32.98 90 45 90 s 23.32 -4.681 31.82 -13.18 C 85.319 68.32 90 57.02 90 45 S 85.319 21.68 76.82 13.18 z M 40.079 79.811 c -4.719 -0.664 -9.139 -2.267 -13.066 -4.616 l 13.066 -15.774 V 79.811 z M 49.921 59.005 l 13.656 15.83 c -4.072 2.545 -8.699 4.279 -13.656 4.976 V 59.005 z M 9.843 45 c 0 -17.715 13.172 -32.41 30.236 -34.811 v 33.803 L 19.35 69.016 C 13.457 62.727 9.843 54.278 9.843 45 z M 71.118 68.508 L 49.921 43.936 V 10.189 C 66.985 12.59 80.157 27.285 80.157 45 C 80.157 54.03 76.734 62.275 71.118 68.508 z" style="stroke: none; stroke-width: 1; stroke-dasharray: none; stroke-linecap: butt; stroke-linejoin: miter; stroke-miterlimit: 10; fill: rgb(0,0,0); fill-rule: nonzero; opacity: 1;" transform=" matrix(1 0 0 1 0 0) " stroke-linecap="round"/>
</g>
</svg>