<svg xmlns="http://www.w3.org/2000/svg" xmlns:xlink="http://www.w3.org/1999/xlink" version="1.1" width="256" height="256" viewBox="0 0 256 256" xml:space="preserve">
<g style="stroke: none; stroke-width: 0; stroke-dasharray: none; stroke-linecap: butt; stroke-linejoin: miter; stroke-miterlimit: 10; fill: none; fill-rule: nonzero; opacity: 1;" transform="translate(1.4065934065934016 1.4065934065934016) scale(2.81 2.81)">
	<path d="M 65.393 84.899 L 44.8 64.306 c -5.342 -5.342 -5.342 -14.035 0 -19.377 c 5.345 -5.343 14.038 -5.342 19.378 0 l 1.217 1.217 l 1.217 -1.217 c 5.342 -5.344 14.036 -5.341 19.377 0 v 0 c 5.342 5.343 5.342 14.036 0 19.377 L 65.393 84.899 z M 54.489 47.07 c -1.933 0 -3.867 0.736 -5.34 2.208 c -2.944 2.945 -2.944 7.735 0 10.678 l 16.244 16.244 l 16.244 -16.244 c 2.944 -2.944 2.944 -7.734 0 -10.678 c -2.944 -2.944 -7.735 -2.944 -10.678 0 l -5.566 5.566 l -5.566 -5.566 C 58.356 47.806 56.422 47.07 54.489 47.07 z" style="stroke: none; stroke-width: 1; stroke-dasharray: none; stroke-linecap: butt; stroke-linejoin: miter; stroke-miterlimit: 10; fill: rgb(0,0,0); fill-rule: nonzero; opacity: 1;" transform=" matrix(1 0 0 1 0 0) " stroke-linecap="round"/>
	<path d="M 45.914 64.813 c -5.21 -5.21 -5.21 -13.688 0 -18.899 c 5.213 -5.211 13.692 -5.21 18.9 0 L 66 47.101 l 1.187 -1.187 c 4.814 -4.816 12.414 -5.169 17.653 -1.087 c 2.129 -2.676 3.669 -5.777 4.482 -9.109 c 1.984 -8.13 -0.359 -16.513 -6.271 -22.424 c -9.253 -9.253 -24.305 -9.251 -33.556 0 L 45 17.787 l -4.494 -4.494 c -9.25 -9.251 -24.304 -9.251 -33.556 0 C 2.468 17.774 0 23.733 0 30.071 c 0 6.338 2.468 12.297 6.95 16.779 L 45 84.899 l 10.5 -10.5 L 45.914 64.813 z" style="stroke: none; stroke-width: 1; stroke-dasharray: none; stroke-linecap: butt; stroke-linejoin: miter; stroke-miterlimit: 10; fill: rgb(0,0,0); fill-rule: nonzero; opacity: 1;" transform=" matrix(1 0 0 1 0 0) " stroke-linecap="round"/>
</g>
</svg>